<svg xmlns="http://www.w3.org/2000/svg" viewBox="0 0 382.06314 160.2046"><defs><style>.a{fill:#fff;}</style></defs><title>x4b-logo</title><path class="a" d="M428.49359,140.149a37.94618,37.94618,0,0,0-16.79-13.333,38.46375,38.46375,0,0,0,11.1445-10.5537c3.8652-5.6573,5.8252-12.753,5.8252-21.0909,0-7.6176-1.30659-14.1518-3.874-19.4297a32.72494,32.72494,0,0,0-11.0811-12.9116,46.90047,46.90047,0,0,0-16.6757-6.8193A100.429,100.429,0,0,0,376.226,54h-73.9638a2.89672,2.89672,0,0,0-2.9033,2.8873v86.9882H280.4507V56.4502c0-1.5942-1.30181-2.2133-2.90341-2.2133h-33.7627c-.916,0-1.7788-.2417-2.3261.4902l-67.1241,90.4414-9.9829-14.3887,53.5816-72.7031c.6538-.8765.081-2.043-.4116-3.0185-.4922-.9756-1.4957-.9156-2.5904-.9156h-41.6435c-.9434,0-1.8291-.2163-2.3721.5542l-32.3047,46.5713L107.8618,54.75c-.5381-.8007-1.4424-.6074-2.4111-.6074H61.852c-1.0976,0-2.103-.0576-2.5957.9204-.4897.9756-1.0605,2.1441-.4023,3.0205l53.8115,72.4893L54.2895,209.608c-.6489.8789-.0737,2.0429.4209,3.0136a2.90425,2.90425,0,0,0,2.5879,1.583H99.4619a4.33464,4.33464,0,0,0,3.039-1.2148l35.0289-49.9902,34.3408,49.9716a4.32045,4.32045,0,0,0,3.0527,1.2334h44.7979a2.88525,2.88525,0,0,0,2.3349-4.6015l-23.00239-32.624h44.16449V211.315a2.8955,2.8955,0,0,0,2.9014,2.8896h31.4277a2.89723,2.89723,0,0,0,2.90341-2.8896V176.9791h18.90819V211.315a2.89713,2.89713,0,0,0,2.9033,2.8896h76.1357a82.98911,82.98911,0,0,0,21.0567-2.6875,57.65554,57.65554,0,0,0,18.53411-8.4394,42.42477,42.42477,0,0,0,13.169-14.9541c3.25779-6.0879,4.90529-13.3496,4.90529-21.5762C436.063,156.3414,433.51409,147.4605,428.49359,140.149ZM385.144,112.7491c-3.3779,2.4936-7.8418,3.7593-13.2666,3.7593h-33.2275V86.1617H369.269a47.37585,47.37585,0,0,1,8.2871.7109,19.38457,19.38457,0,0,1,6.51961,2.3379,11.48057,11.48057,0,0,1,4.17869,4.3481,15.15457,15.15457,0,0,1,1.583,7.4522C389.83739,106.5806,388.30509,110.4229,385.144,112.7491Zm-46.4941,32.6772h35.8369c6.6992,0,12.1103,1.5137,16.0635,4.4961,3.7636,2.8389,5.5908,7.6377,5.5908,14.6777a18.41991,18.41991,0,0,1-1.7305,8.6006,13.44241,13.44241,0,0,1-4.5644,5.0987,20.71108,20.71108,0,0,1-7.0586,2.834,43.08528,43.08528,0,0,1-8.9541.9072h-35.1836Zm-95.4317-41.1875v39.6367h-30.4453Z" transform="translate(-53.99984 -54)"/></svg>